<svg xmlns="http://www.w3.org/2000/svg" viewBox="0 0 1320 300" width="1320" height="300" role="img">
<rect width="1320" height="300" fill="#1C1C1E"/>
<text x="60" y="84" font-family="ui-sans-serif,-apple-system,'Helvetica Neue',Arial,sans-serif" font-size="42" font-weight="600" fill="#ECECEA" text-anchor="start" letter-spacing="0.22em">WORLDLOOM</text>
<rect x="63" y="102" width="46" height="5" fill="#E85D1F"/>
<text x="60" y="138" font-family="ui-sans-serif,-apple-system,'Helvetica Neue',Arial,sans-serif" font-size="19" font-weight="400" fill="#ECECEA" text-anchor="start">A deterministic compiler for coherent synthetic enterprise corpora.</text>
<text x="60" y="163" font-family="ui-sans-serif,-apple-system,'Helvetica Neue',Arial,sans-serif" font-size="15" font-weight="400" fill="#9A9A96" text-anchor="start">Facts precede prose. Simulation precedes rendering. Every claim keeps its evidence.</text>
<rect x="60" y="196" width="130" height="64" rx="2" fill="#232326" stroke="#38383B" stroke-width="1"/>
<text x="76" y="222" font-family="ui-sans-serif,-apple-system,'Helvetica Neue',Arial,sans-serif" font-size="11" font-weight="600" fill="#9A9A96" text-anchor="start" letter-spacing="0.14em">SEED</text>
<text x="76" y="244" font-family="ui-monospace,'SF Mono',Menlo,Consolas,monospace" font-size="15" font-weight="500" fill="#ECECEA" text-anchor="start">8128</text>
<line x1="196" y1="228.0" x2="217" y2="228.0" stroke="#9A9A96" stroke-width="1.2"/><path d="M 224 228.0 l -8 -4 l 0 8 z" fill="#9A9A96"/>
<rect x="230" y="196" width="220" height="64" rx="2" fill="#232326" stroke="#38383B" stroke-width="1"/>
<text x="246" y="222" font-family="ui-sans-serif,-apple-system,'Helvetica Neue',Arial,sans-serif" font-size="11" font-weight="600" fill="#9A9A96" text-anchor="start" letter-spacing="0.14em">WORLD</text>
<text x="246" y="244" font-family="ui-monospace,'SF Mono',Menlo,Consolas,monospace" font-size="15" font-weight="500" fill="#ECECEA" text-anchor="start">615 facts · 17 events</text>
<line x1="456" y1="228.0" x2="477" y2="228.0" stroke="#9A9A96" stroke-width="1.2"/><path d="M 484 228.0 l -8 -4 l 0 8 z" fill="#9A9A96"/>
<rect x="490" y="196" width="240" height="64" rx="2" fill="#232326" stroke="#38383B" stroke-width="1"/>
<text x="506" y="222" font-family="ui-sans-serif,-apple-system,'Helvetica Neue',Arial,sans-serif" font-size="11" font-weight="600" fill="#9A9A96" text-anchor="start" letter-spacing="0.14em">DOCUMENTS</text>
<text x="506" y="244" font-family="ui-monospace,'SF Mono',Menlo,Consolas,monospace" font-size="15" font-weight="500" fill="#ECECEA" text-anchor="start">16 artifacts · 35 sections</text>
<line x1="736" y1="228.0" x2="757" y2="228.0" stroke="#9A9A96" stroke-width="1.2"/><path d="M 764 228.0 l -8 -4 l 0 8 z" fill="#9A9A96"/>
<rect x="770" y="196" width="240" height="64" rx="2" fill="#232326" stroke="#38383B" stroke-width="1"/>
<text x="786" y="222" font-family="ui-sans-serif,-apple-system,'Helvetica Neue',Arial,sans-serif" font-size="11" font-weight="600" fill="#9A9A96" text-anchor="start" letter-spacing="0.14em">EVALUATION</text>
<text x="786" y="244" font-family="ui-monospace,'SF Mono',Menlo,Consolas,monospace" font-size="15" font-weight="500" fill="#ECECEA" text-anchor="start">51 cases · with evidence</text>
<line x1="1016" y1="228.0" x2="1037" y2="228.0" stroke="#9A9A96" stroke-width="1.2"/><path d="M 1044 228.0 l -8 -4 l 0 8 z" fill="#9A9A96"/>
<rect x="1050" y="196" width="240" height="64" rx="2" fill="#232326" stroke="#38383B" stroke-width="1"/>
<rect x="1050" y="196" width="4" height="64" fill="#E85D1F"/>
<text x="1066" y="222" font-family="ui-sans-serif,-apple-system,'Helvetica Neue',Arial,sans-serif" font-size="11" font-weight="600" fill="#9A9A96" text-anchor="start" letter-spacing="0.14em">VALIDATE</text>
<text x="1066" y="244" font-family="ui-monospace,'SF Mono',Menlo,Consolas,monospace" font-size="15" font-weight="500" fill="#ECECEA" text-anchor="start">8,861 checks · coherent</text>
<text x="1290" y="290" font-family="ui-sans-serif,-apple-system,'Helvetica Neue',Arial,sans-serif" font-size="12" font-weight="400" fill="#9A9A96" text-anchor="end">one seed, byte-identical on every rebuild</text>
</svg>
